HIERARCHY
ROOT Bip001_Pelvis
{
  OFFSET 34.4345 95.6767 -26.8758
  CHANNELS 6 Xposition Yposition Zposition Zrotation Xrotation Yrotation
  JOINT Bip001_Spine
  {
    OFFSET 1.4188e-005 10.2191 -0.0116013
    CHANNELS 3 Zrotation Xrotation Yrotation
    JOINT Bip001_L_Thigh
    {
      OFFSET 11.0458 -10.2192 0.0116197
      CHANNELS 3 Zrotation Xrotation Yrotation
      JOINT Bip001_L_Calf
      {
        OFFSET -0.707118 -44.0221 0.360014
        CHANNELS 3 Zrotation Xrotation Yrotation
        JOINT Bip001_L_Foot
        {
          OFFSET -0.651902 -40.5938 -3.56146
          CHANNELS 3 Zrotation Xrotation Yrotation
          JOINT Bip001_L_Toe0
          {
            OFFSET 0.0530839 -10.2181 13.1504
            CHANNELS 3 Zrotation Xrotation Yrotation
            End Site
            {
              OFFSET -1.02532e-005 0 7.55606
            }
          }
        }
      }
    }
    JOINT Bip001_R_Thigh
    {
      OFFSET -11.0458 -10.2191 0.0115893
      CHANNELS 3 Zrotation Xrotation Yrotation
      JOINT Bip001_R_Calf
      {
        OFFSET 0.706994 -44.0221 0.35984
        CHANNELS 3 Zrotation Xrotation Yrotation
        JOINT Bip001_R_Foot
        {
          OFFSET 0.651786 -40.5938 -3.5613
          CHANNELS 3 Zrotation Xrotation Yrotation
          JOINT Bip001_R_Toe0
          {
            OFFSET -0.0531479 -10.2181 13.1504
            CHANNELS 3 Zrotation Xrotation Yrotation
            End Site
            {
              OFFSET -1.02894e-005 0 7.55606
            }
          }
        }
      }
    }
    JOINT Bip001_Spine1
    {
      OFFSET 1.87041e-005 14.5736 1.08638
      CHANNELS 3 Zrotation Xrotation Yrotation
      JOINT Bip001_Spine2
      {
        OFFSET 2.24614e-005 14.5058 -1.69078
        CHANNELS 3 Zrotation Xrotation Yrotation
        JOINT Bip001_Neck
        {
          OFFSET 2.20278e-005 15.3945 -0.489414
          CHANNELS 3 Zrotation Xrotation Yrotation
          JOINT Bip001_L_Clavicle
          {
            OFFSET 6.06036 -0.000579998 0.00836775
            CHANNELS 3 Zrotation Xrotation Yrotation
            JOINT Bip001_L_UpperArm
            {
              OFFSET 11.5509 -0.0600302 0.00193952
              CHANNELS 3 Zrotation Xrotation Yrotation
              JOINT Bip001_L_Forearm
              {
                OFFSET 25.9523 0.0806089 -2.15551
                CHANNELS 3 Zrotation Xrotation Yrotation
                JOINT Bip001_L_Hand
                {
                  OFFSET 32.2475 0.153767 1.63968
                  CHANNELS 3 Zrotation Xrotation Yrotation
                  JOINT Bip001_L_Finger0
                  {
                    OFFSET 6.04639 -2.20976 5.90322
                    CHANNELS 3 Zrotation Xrotation Yrotation
                    End Site
                    {
                      OFFSET 4.22375 -1.43895 0.606485
                    }
                  }
                  JOINT Bip001_L_Finger1
                  {
                    OFFSET 11.0826 -0.704819 -0.198153
                    CHANNELS 3 Zrotation Xrotation Yrotation
                    End Site
                    {
                      OFFSET 6.20027 -0.397518 -0.0787166
                    }
                  }
                }
              }
            }
          }
          JOINT Bip001_R_Clavicle
          {
            OFFSET -6.06037 -0.000563197 0.00835105
            CHANNELS 3 Zrotation Xrotation Yrotation
            JOINT Bip001_R_UpperArm
            {
              OFFSET -11.5509 -0.0599978 0.00190698
              CHANNELS 3 Zrotation Xrotation Yrotation
              JOINT Bip001_R_Forearm
              {
                OFFSET -25.9523 0.0806822 -2.15589
                CHANNELS 3 Zrotation Xrotation Yrotation
                JOINT Bip001_R_Hand
                {
                  OFFSET -32.2475 0.153859 1.63989
                  CHANNELS 3 Zrotation Xrotation Yrotation
                  JOINT Bip001_R_Finger0
                  {
                    OFFSET -6.04641 -2.20976 5.90317
                    CHANNELS 3 Zrotation Xrotation Yrotation
                    End Site
                    {
                      OFFSET -4.22376 -1.43895 0.60647
                    }
                  }
                  JOINT Bip001_R_Finger1
                  {
                    OFFSET -11.0826 -0.704794 -0.198182
                    CHANNELS 3 Zrotation Xrotation Yrotation
                    End Site
                    {
                      OFFSET -6.20028 -0.397504 -0.0787333
                    }
                  }
                }
              }
            }
          }
          JOINT Bip001_Head
          {
            OFFSET 1.09673e-005 11.2744 2.05948
            CHANNELS 3 Zrotation Xrotation Yrotation
            End Site
            {
              OFFSET 2.89576e-005 20.8808 -2.77728e-005
            }
          }
        }
      }
    }
  }
}
MOTION
Frames:	8
Frame Time:	0.04
32.0036 95.623 -31.043 -2.52639 2.76192 5.99418 -0.113076 2.01367 0.166273 10.9543 -10.5224 9.56035 -2.67504 14.7008 -5.54294 1.30687 -6.83851 0.0413451 1.16054 -3.66757 -0.998042 0.424794 -6.72684 6.51726 1.09034 10.5757 -1.27022 -9.71737 -4.42425 -14.104 2.62389 -8.90009 2.91186 -0.232571 4.02702 0.337377 -0.232379 4.02703 0.337117 -3.15384 -9.4974 3.24222 -21.2638 12.5454 -4.24882 -61.1613 38.9484 25.0943 16.2917 -11.1825 -45.0666 6.6573 3.00828 -1.0139 -1.76556e-031 3.18055e-015 3.18055e-015 1.59028e-015 3.18056e-015 -0 10.8501 13.6704 24.6536 53.1325 -49.1734 53.4695 -56.5472 2.86136 59.6537 -15.7823 -19.5054 12.3596 -3.18055e-015 0 -0 -3.18055e-015 0 -0 -4.19757 5.109 3.51952 
31.4846 95.596 -31.1674 -2.2822 2.59403 7.31773 -0.181003 2.3066 0.234182 11.1821 -10.849 10.3097 -2.70561 14.29 -7.27485 0.614795 -6.70569 0.0427887 1.11301 -3.52898 -1.07117 0.672761 -7.04204 6.78711 1.10726 11.1654 -1.19672 -10.2044 -4.45864 -15.472 2.58924 -8.77287 2.84298 -0.373362 4.61245 0.470016 -0.37288 4.61247 0.473361 -3.6345 -8.96628 3.53177 -18.9553 12.0193 -5.04144 -61.9492 38.897 24.2053 16.2748 -12.4423 -45.4696 7.3142 3.58242 -0.51852 3.18055e-015 9.54166e-015 -6.36111e-015 3.18055e-015 9.54167e-015 -3.18055e-015 13.6508 13.2834 23.2986 40.7276 -52.0043 47.6954 -49.6973 -1.91721 53.7182 -14.3868 -14.8519 10.0575 -3.18055e-015 3.18055e-015 7.95139e-016 4.41391e-032 3.18056e-015 -7.95139e-016 -3.37825 4.13012 3.42904 
31.5068 95.667 -31.0154 -1.37846 1.71643 7.53368 -0.0805871 2.39929 0.0898822 10.2948 -9.27517 11.7093 -2.47586 13.1385 -8.1734 -1.17268 -7.08961 0.0228443 0.810115 -2.1325 -1.06426 -0.295431 -6.28866 4.99388 0.960613 11.776 -0.515966 -10.2656 -4.99178 -14.6305 2.56671 -8.73361 2.8629 -0.162132 4.79834 0.187061 -0.163488 4.79834 0.184923 -2.9864 -6.79251 3.66894 -19.1454 9.99614 -5.94742 -64.6996 36.7636 26.8289 16.4357 -11.6723 -47.387 7.11455 4.08665 0.494359 -1.59028e-015 9.54166e-015 -0 -1.59028e-015 1.59028e-014 -0 13.1165 10.5182 19.1519 36.8609 -51.5442 44.2901 -45.9173 -4.17798 54.9496 -17.486 -10.534 8.61648 3.18055e-015 -6.36111e-015 -3.18055e-015 3.18055e-015 -4.77083e-015 -1.59028e-015 -4.36808 3.8541 3.96531 
31.5925 95.7433 -30.6849 -1.09928 1.26818 5.99716 0.206071 2.33129 -0.23306 9.73594 -7.41235 14.9585 -2.04373 11.9636 -9.87648 -1.2202 -6.86014 0.0246704 0.698992 -2.01213 -0.954856 -0.638047 -5.62184 5.02084 0.357427 11.5767 -0.312424 -9.81931 -5.2249 -13.166 2.48563 -8.53219 2.8474 0.422157 4.66167 -0.4751 0.422159 4.66167 -0.475103 -3.84213 -6.3141 4.21586 -19.3724 9.37584 -5.10251 -66.6413 35.2978 29.6239 17.0855 -9.39344 -47.9755 5.8803 3.8894 0.730797 3.18055e-015 0 -0 4.77083e-015 0 -1.59028e-015 13.9749 9.63698 17.3574 35.4656 -50.6706 38.6783 -41.4451 -6.84358 60.7746 -17.8159 -6.38408 7.86756 0 0 -1.59028e-015 -0 0 3.97569e-016 -3.27631 4.2226 3.94514 
31.6794 95.7953 -30.4647 -1.17901 1.1055 3.80489 0.362185 2.31802 -0.394634 9.7194 -6.05277 15.0881 -2.43935 11.1235 -7.66467 -1.66741 -7.11002 0.0255003 0.567923 -1.75547 -0.843858 -0.721198 -5.44231 5.25808 0.0710723 11.2257 0.0185458 -9.45946 -5.29458 -11.6152 2.45231 -8.48739 2.89386 0.741264 4.63342 -0.804924 0.741266 4.63343 -0.804928 -3.70318 -7.80922 3.39099 -19.2436 10.5906 -4.21335 -69.4588 35.6406 30.7556 17.4646 -8.16228 -44.6091 5.82773 3.54713 -0.390925 1.59028e-015 0 -0 1.59028e-015 3.18056e-015 -1.59028e-015 15.4193 11.162 15.7169 33.4876 -47.7617 35.0764 -40.3964 -6.84147 61.9584 -11.5269 -7.38673 10.7297 3.18055e-015 -2.38542e-015 -2.38542e-015 -9.93129e-032 -2.38542e-015 -2.38542e-015 -1.66679 5.77059 2.83984 
32.1006 95.7929 -30.2018 -0.689395 0.405803 1.38792 0.315668 2.3632 -0.286815 8.28305 -4.36297 13.8328 -1.54873 10.1913 -4.99065 -1.56762 -6.9418 0.0259671 0.386721 -2.19125 -0.475628 -1.77047 -5.07013 2.24624 -0.182868 11.5312 0.371878 -8.48082 -6.62375 -7.54966 2.41585 -8.45657 2.96695 0.639963 4.72477 -0.586945 0.641982 4.72473 -0.587013 -0.211309 -8.14791 0.549736 -22.4209 10.3068 -2.80344 -71.1053 36.6915 30.7594 16.8457 -5.43454 -40.5379 3.64629 3.20449 -1.65162 -4.41391e-032 -3.18055e-015 -7.95139e-016 -4.41391e-032 -3.18056e-015 -7.95139e-016 14.2277 12.1696 15.0478 31.5665 -43.488 30.3758 -37.2471 -6.45935 64.5805 -10.3302 -7.0347 9.31701 3.18055e-015 3.97569e-015 1.98785e-015 6.36111e-015 3.97569e-015 5.1684e-015 -3.20121 5.85913 1.3587 
32.3283 95.7153 -29.97 -0.602832 0.0388107 -1.87431 0.344037 2.35122 -0.0402507 7.65515 -3.13761 14.2082 -1.23782 10.1718 -3.05312 -0.498732 -6.83454 0.0264209 0.717266 -3.06446 -0.541807 -2.32556 -5.35893 0.759368 -0.382133 12.2126 0.890094 -7.5726 -7.698 -4.28338 2.33668 -8.29022 3.00325 0.681927 4.70206 -0.0947267 0.686171 4.70205 -0.0943523 1.14582 -10.5667 -1.95917 -24.7055 11.7756 -0.452565 -70.6805 38.3836 29.6418 16.9567 0.318453 -36.9118 1.77849 3.082 -3.26797 7.95139e-016 3.18055e-015 1.19271e-015 1.59028e-015 0 1.19271e-015 16.5475 15.305 14.1852 30.6218 -41.4591 24.1568 -37.1098 -3.93342 70.468 -9.20468 -6.2139 7.90013 -3.18055e-015 -1.19271e-015 -5.36719e-015 -3.18055e-015 -1.98785e-016 -6.55989e-015 -3.08338 7.86284 -0.729644 
32.6263 95.6566 -29.7586 -0.445931 -0.343084 -4.48464 0.365583 2.44332 -0.0894063 6.80115 -2.16621 13.987 -0.799429 10.0801 -0.547977 -0.47887 -7.1306 0.0268739 0.658869 -3.19957 -0.302036 -2.99425 -5.68793 0.204997 -0.398472 12.8914 1.10932 -6.82797 -8.49499 -1.69703 2.27906 -8.18065 3.03897 0.729321 4.886 -0.193102 0.732702 4.88598 -0.193638 1.0632 -11.3253 -2.13521 -25.0232 12.4084 0.0054963 -69.7273 39.2478 27.2345 17.0912 5.52165 -33.5481 1.44337 3.34738 -4.53507 -3.97569e-016 -3.18055e-015 9.93923e-016 -7.95139e-016 -6.36111e-015 1.98785e-016 20.2832 16.4562 12.8591 28.6449 -38.2026 17.2695 -40.1212 -1.19175 73.0989 -8.27185 -6.98053 9.81105 -3.18055e-015 0 2.38542e-015 3.18055e-015 0 7.95139e-016 -1.18807 8.50103 -1.49578 
